<mxfile host="app.diagrams.net" modified="2023-11-08T10:41:46.429Z" agent="Mozilla/5.0 (Macintosh; Intel Mac OS X 10_15_7) AppleWebKit/605.1.15 (KHTML, like Gecko) Version/17.0 Safari/605.1.15" version="22.0.8" etag="aNTk9XFOYK8juxqaoHWx" type="github">
  <diagram name="Page-1" id="B3j7Q7vSjKYoIUIZnbCF">
    <mxGraphModel>
      <root>
        <mxCell id="0" />
        <mxCell id="1" parent="0" />
      </root>
    </mxGraphModel>
  </diagram>
</mxfile>
